<?xml version="1.0" encoding="UTF-8" standalone="no"?>
<!-- Created with Inkscape (http://www.inkscape.org/) -->

<svg
   xmlns:dc="http://purl.org/dc/elements/1.1/"
   xmlns:cc="http://creativecommons.org/ns#"
   xmlns:rdf="http://www.w3.org/1999/02/22-rdf-syntax-ns#"
   xmlns:svg="http://www.w3.org/2000/svg"
   xmlns="http://www.w3.org/2000/svg"
   xmlns:sodipodi="http://sodipodi.sourceforge.net/DTD/sodipodi-0.dtd"
   xmlns:inkscape="http://www.inkscape.org/namespaces/inkscape"
   version="1.1"
   id="svg10"
   xml:space="preserve"
   width="1719.9813"
   height="731.02808"
   viewBox="0 0 1719.9813 731.02808"
   sodipodi:docname="logo.svg"
   inkscape:version="0.92.4 (5da689c313, 2019-01-14)"><metadata
     id="metadata16"><rdf:RDF><cc:Work
         rdf:about=""><dc:format>image/svg+xml</dc:format><dc:type
           rdf:resource="http://purl.org/dc/dcmitype/StillImage" /><dc:title></dc:title></cc:Work></rdf:RDF></metadata><defs
     id="defs14"><clipPath
       clipPathUnits="userSpaceOnUse"
       id="clipPath26"><path
         d="M 0,1144.49 H 1710.17 V 0 H 0 Z"
         id="path24"
         inkscape:connector-curvature="0" /></clipPath></defs><sodipodi:namedview
     pagecolor="#ffffff"
     bordercolor="#666666"
     borderopacity="1"
     objecttolerance="10"
     gridtolerance="10"
     guidetolerance="10"
     inkscape:pageopacity="0"
     inkscape:pageshadow="2"
     inkscape:window-width="2560"
     inkscape:window-height="1377"
     id="namedview12"
     showgrid="false"
     inkscape:snap-page="false"
     inkscape:lockguides="false"
     fit-margin-top="0"
     fit-margin-left="0"
     fit-margin-right="0"
     fit-margin-bottom="0"
     inkscape:zoom="0.55975913"
     inkscape:cx="1419.5005"
     inkscape:cy="183.09403"
     inkscape:window-x="-8"
     inkscape:window-y="-8"
     inkscape:window-maximized="1"
     inkscape:current-layer="g18" /><g
     id="g18"
     inkscape:groupmode="layer"
     inkscape:label="Condors_V1_BLK"
     transform="matrix(1.3333333,0,0,-1.3333333,-280.12266,1317.5981)"><g
       id="g20"><g
         id="g22"
         clip-path="url(#clipPath26)"><g
           id="g28"
           transform="translate(855.084,938.1235)"><path
             d="m 0,0 v 0 c 0,0 15.32,-10.115 27.77,-45.266 12.074,-34.091 23.298,-47.662 66.869,-48.939 86.142,-2.527 245.492,53.803 299.324,80.797 53.834,26.994 104.918,65.085 127.33,63.431 0,0 -9.147,-19.41 -63.934,-53.404 0,0 88.885,39.82 109.885,27.82 0,0 -16.68,-18.212 -86.719,-49.699 0,0 109.219,32.199 127.856,15.655 0,0 -19.065,-16.241 -110.158,-41.715 0,0 115.521,16.259 138.306,-2.52 0,0 -26.502,-16.101 -125.759,-29.014 0,0 110.474,2.293 134.224,-19.189 0,0 -30.623,-11.996 -136.154,-15.881 0,0 113.039,-13.224 122.336,-30.789 0,0 -35.848,-8.756 -131.024,-6.213 0,0 87.442,-15.101 98.592,-35.635 0,0 -24.461,-4.322 -112.748,4.104 0,0 29.656,-13.57 33.33,-23.061 0,0 -13.873,-1.259 -49.74,0.217 -81.17,-44.16 -182.744,-85.078 -354.746,-129.353 0,0 -20.283,13.982 -27.399,27.185 0,0 4.87,-15.847 37.834,-60.875 31.192,-42.604 37.327,-47.785 35.475,-54.723 -3.412,-12.793 -60.344,-44.777 -160.75,-71.129 -100.403,26.352 -157.337,58.336 -160.749,71.129 -1.85,6.938 4.285,12.119 35.475,54.723 32.965,45.027 37.835,60.874 37.835,60.874 -7.116,-13.203 -27.4,-27.185 -27.4,-27.185 -172.002,44.275 -273.576,85.193 -354.745,129.354 -35.867,-1.476 -49.74,-0.217 -49.74,-0.217 3.673,9.49 33.331,23.061 33.331,23.061 -88.287,-8.427 -112.75,-4.105 -112.75,-4.105 11.151,20.535 98.593,35.636 98.593,35.636 -95.177,-2.543 -131.024,6.212 -131.024,6.212 9.296,17.565 122.336,30.79 122.336,30.79 -105.531,3.885 -136.154,15.88 -136.154,15.88 23.749,21.482 134.223,19.19 134.223,19.19 -99.256,12.912 -125.758,29.014 -125.758,29.014 22.784,18.778 138.307,2.519 138.307,2.519 -91.093,25.475 -110.158,41.716 -110.158,41.716 18.635,16.543 127.855,-15.655 127.855,-15.655 -70.039,31.486 -86.72,49.698 -86.72,49.698 21,12 109.886,-27.819 109.886,-27.819 -54.787,33.993 -63.934,53.403 -63.934,53.403 22.411,1.655 73.497,-36.436 127.329,-63.43 53.833,-26.994 213.184,-83.325 299.324,-80.798 43.573,1.277 54.797,14.849 66.87,48.939 C -15.319,-10.116 0,0 0,0 V -0.001 0"
             style="fill:#e1429a;fill-opacity:1;fill-rule:nonzero;stroke:none"
             id="path30"
             inkscape:connector-curvature="0" /></g><g
           id="g32"
           transform="translate(334.4102,283.7871)" /><g
           id="g36"
           transform="translate(525.5488,213.0859)" /><g
           id="g40"
           transform="translate(759.3545,340.6914)" /><g
           id="g44"
           transform="translate(921.8652,213.9766)" /><g
           id="g48"
           transform="translate(1130.0957,213.0859)" /><g
           id="g52"
           transform="translate(1319.5352,355.9355)" /><g
           id="g56"
           transform="translate(1376.7988,222.9844)" /></g></g></g></svg>